<?xml version="1.0" encoding="utf-8"?>
<!-- Generator: Adobe Illustrator 21.0.2, SVG Export Plug-In . SVG Version: 6.00 Build 0)  -->
<svg version="1.1" id="Capa_1" xmlns="http://www.w3.org/2000/svg" xmlns:xlink="http://www.w3.org/1999/xlink" x="0px" y="0px"
	 viewBox="0 0 345.9 212.3" style="enable-background:new 0 0 345.9 212.3;" xml:space="preserve">
<style type="text/css">
	.st0{fill:#FFFFFF;}
	.st1{fill:#5FBB48;}
	.st2{fill:#E5B733;}
	.st3{fill:#C4202E;}
	.st4{fill:#4B9F45;}
	.st5{fill:#418045;}
	.st6{fill:#F9C21A;}
	.st7{fill:#EF442A;}
	.st8{fill:#F99D28;}
	.st9{fill:#1E95D3;}
	.st10{fill:#A11D44;}
	.st11{fill:#2CBCE0;}
	.st12{fill:#F36C2C;}
	.st13{fill:#E7253D;}
	.st14{fill:#DB1869;}
	.st15{fill:#15496B;}
	.st16{fill:#C5972E;}
	.st17{fill:#0F6A9C;}
	.st18{fill:#5EBA47;}
	.st19{fill:#E2B432;}
	.st20{fill:#C3212E;}
	.st21{fill:#4B9E46;}
	.st22{fill:#408046;}
	.st23{fill:#F8C116;}
	.st24{fill:#ED4029;}
	.st25{fill:#F79D28;}
	.st26{fill:#1795D2;}
	.st27{fill:#A11C46;}
	.st28{fill:#26BCE3;}
	.st29{fill:#F26B2C;}
	.st30{fill:#E7213E;}
	.st31{fill:#DB176A;}
	.st32{fill:#14476C;}
	.st33{fill:#C5982D;}
	.st34{fill:#036A9C;}
</style>
<g>
	<g>
		<path class="st0" d="M204.9,52l5.8-33.4l10.4,0c3.9,0,6.8,0.8,8.7,2.4c1.9,1.6,2.8,3.8,2.6,6.6c-0.2,3.4-2.2,5.8-5.8,7.4
			c1.3,0.5,2.4,1.3,3.1,2.6c0.7,1.3,1,2.7,0.9,4.5c-0.2,3.2-1.4,5.6-3.7,7.4c-2.3,1.8-5.3,2.6-9.2,2.6H204.9z M214.2,37.5l-1.6,9
			l5.3,0c1.7,0,3-0.4,4.2-1.2c1.1-0.8,1.8-1.9,2-3.3c0.2-1.4,0-2.5-0.6-3.2c-0.6-0.8-1.6-1.2-3-1.2L214.2,37.5z M215,32.6l4.6,0
			c1.7,0,3.1-0.4,4.2-1.2c1.1-0.8,1.7-1.8,1.9-3.2c0.4-2.7-1-4-4.2-4.1l-5,0L215,32.6z"/>
		<path class="st0" d="M256.3,37.5h-12.8l-1.6,9h15l-1,5.5h-21.8l5.8-33.4h21.7l-1,5.6h-15l-1.4,8h12.8L256.3,37.5z"/>
		<path class="st0" d="M289.8,24.2h-9.9L275,52h-6.7l4.8-27.8h-9.8l1-5.6h26.4L289.8,24.2z"/>
		<path class="st0" d="M305.8,45.1h-11.6l-3.4,6.9h-7.4l17.8-33.4h6.2l6.3,33.4h-6.9L305.8,45.1z M296.9,39.6h8l-1.9-12.4
			L296.9,39.6z"/>
	</g>
	<g>
		<path class="st1" d="M75.3,91.2c2.1-3.5,4.6-6.8,7.5-9.7L58.1,54.4c-6.2,5.9-11.5,12.8-15.7,20.4L75.3,91.2z"/>
		<path class="st2" d="M135.8,72.1c3.7,1.7,7.2,3.9,10.3,6.5l24.8-27c-6.5-5.6-13.9-10.3-21.9-13.7L135.8,72.1z"/>
		<path class="st3" d="M192.5,80.2l-32.8,16.4c1.6,3.7,2.7,7.5,3.3,11.6l36.5-3.4C198.4,96.1,196,87.8,192.5,80.2"/>
		<path class="st4" d="M157.3,91.8l32.8-16.4c-4.1-7.6-9.2-14.4-15.3-20.4l-24.7,27C152.9,85,155.3,88.3,157.3,91.8"/>
		<path class="st5" d="M68.8,115.1c0-0.7,0-1.5,0.1-2.2l-36.5-3.3c-0.1,1.8-0.2,3.6-0.2,5.5c0,7,0.9,13.8,2.5,20.3l35.3-10.1
			C69.2,122,68.8,118.6,68.8,115.1"/>
		<path class="st6" d="M152.7,145.1c-2.6,3.2-5.6,6-8.9,8.4l19.3,31.2c7.2-4.9,13.5-10.8,18.9-17.5L152.7,145.1z"/>
		<path class="st7" d="M163.5,115.1c0,3.5-0.4,6.8-1.1,10.1l35.3,10.1c1.6-6.5,2.5-13.2,2.5-20.2c0-1.7-0.1-3.4-0.2-5.2l-36.5,3.4
			C163.5,114,163.5,114.6,163.5,115.1"/>
		<path class="st8" d="M80.1,145.8L50.9,168c5.4,6.7,11.9,12.5,19.1,17.3l19.3-31.2C85.9,151.8,82.8,149,80.1,145.8"/>
		<path class="st9" d="M69.4,107.7c0.7-4.1,1.9-8.1,3.5-11.8L40.1,79.6c-3.6,7.7-6.1,16.1-7.2,24.8L69.4,107.7z"/>
		<path class="st10" d="M158.6,187.5l-19.2-31.2c-3.5,2-7.3,3.5-11.2,4.6l6.8,36.1C143.4,195.1,151.4,191.8,158.6,187.5"/>
		<path class="st11" d="M161,130.3c-1.3,3.8-3,7.3-5.1,10.6l29.3,22.1c4.8-6.8,8.5-14.4,11.1-22.5L161,130.3z"/>
		<path class="st12" d="M123,162c-2.2,0.3-4.5,0.5-6.8,0.5c-1.9,0-3.7-0.1-5.5-0.3l-6.8,36c4,0.6,8.1,0.9,12.3,0.9
			c4.6,0,9.2-0.4,13.6-1.1L123,162z"/>
		<path class="st13" d="M119.1,67.9c4.1,0.3,8,1,11.7,2.3L144,35.9c-7.8-2.8-16.2-4.4-24.9-4.7V67.9z"/>
		<path class="st14" d="M105.4,161.3c-4.1-1-8-2.4-11.6-4.4l-19.3,31.2c7.4,4.3,15.5,7.4,24.1,9.2L105.4,161.3z"/>
		<path class="st15" d="M101.9,70c3.8-1.2,7.8-1.9,12-2.1V31.2c-8.8,0.2-17.3,1.8-25.2,4.6L101.9,70z"/>
		<path class="st16" d="M76.9,141.6c-2.3-3.4-4.2-7.2-5.6-11.2l-35.2,10.1c2.7,8.4,6.6,16.2,11.6,23.3L76.9,141.6z"/>
		<path class="st17" d="M86.8,78c3.1-2.5,6.5-4.5,10.2-6.1L83.7,37.7c-7.9,3.3-15.2,7.8-21.6,13.2L86.8,78z"/>
	</g>
</g>
</svg>
