<?xml version="1.0" encoding="utf-8"?>
<!-- Generator: Adobe Illustrator 21.0.2, SVG Export Plug-In . SVG Version: 6.00 Build 0)  -->
<svg version="1.1" id="Capa_1" xmlns="http://www.w3.org/2000/svg" xmlns:xlink="http://www.w3.org/1999/xlink" x="0px" y="0px"
	 viewBox="0 0 345.9 337" style="enable-background:new 0 0 345.9 337;" xml:space="preserve">
<style type="text/css">
	.st0{fill:#FFFFFF;}
	.st1{fill:#5FBB48;}
	.st2{fill:#E5B733;}
	.st3{fill:#C4202E;}
	.st4{fill:#4B9F45;}
	.st5{fill:#418045;}
	.st6{fill:#F9C21A;}
	.st7{fill:#EF442A;}
	.st8{fill:#F99D28;}
	.st9{fill:#1E95D3;}
	.st10{fill:#A11D44;}
	.st11{fill:#2CBCE0;}
	.st12{fill:#F36C2C;}
	.st13{fill:#E7253D;}
	.st14{fill:#DB1869;}
	.st15{fill:#15496B;}
	.st16{fill:#C5972E;}
	.st17{fill:#0F6A9C;}
	.st18{fill:#5EBA47;}
	.st19{fill:#E2B432;}
	.st20{fill:#C3212E;}
	.st21{fill:#4B9E46;}
	.st22{fill:#408046;}
	.st23{fill:#F8C116;}
	.st24{fill:#ED4029;}
	.st25{fill:#F79D28;}
	.st26{fill:#1795D2;}
	.st27{fill:#A11C46;}
	.st28{fill:#26BCE3;}
	.st29{fill:#F26B2C;}
	.st30{fill:#E7213E;}
	.st31{fill:#DB176A;}
	.st32{fill:#14476C;}
	.st33{fill:#C5982D;}
	.st34{fill:#036A9C;}
</style>
<g>
	<g>
		<path class="st0" d="M28.1,325.2l5.5-10.8H35l-6.6,12.8h-1.1l-2.7-12.8H26L28.1,325.2z"/>
		<path class="st0" d="M40.1,327.4c-1,0-1.9-0.3-2.7-0.9c-0.7-0.6-1.3-1.3-1.6-2.3s-0.5-2-0.4-3.1l0-0.4c0.1-1.2,0.5-2.3,1.1-3.4
			c0.6-1.1,1.3-1.9,2.2-2.4c0.9-0.6,1.9-0.8,2.9-0.8c1,0,1.8,0.3,2.4,0.8c0.7,0.5,1.1,1.2,1.4,2.1c0.3,0.9,0.4,1.9,0.3,3l-0.1,0.9
			h-8.9l0,0.3c-0.1,0.9-0.1,1.7,0.2,2.5c0.2,0.8,0.6,1.4,1.2,1.9c0.6,0.5,1.2,0.7,2,0.7c0.8,0,1.4-0.1,2-0.4
			c0.6-0.3,1.2-0.7,1.7-1.3l0.8,0.7c-0.6,0.7-1.3,1.3-2.1,1.7C41.9,327.2,41.1,327.4,40.1,327.4z M41.6,315.3c-1,0-1.9,0.3-2.8,1.1
			c-0.8,0.8-1.4,1.8-1.8,3.2l7.4,0l0-0.2c0.1-1.1-0.1-2.1-0.6-2.9C43.4,315.8,42.6,315.4,41.6,315.3z"/>
		<path class="st0" d="M55.1,315.6c-0.3-0.1-0.6-0.1-0.9-0.1c-0.9,0-1.7,0.3-2.5,0.8c-0.7,0.5-1.2,1.2-1.5,2.1l-1.5,8.8h-1.4
			l2.2-12.8h1.4l-0.4,2c0.5-0.8,1-1.3,1.7-1.7c0.7-0.4,1.4-0.6,2.2-0.6c0.3,0,0.6,0.1,1,0.2L55.1,315.6z"/>
		<path class="st0" d="M63.4,323.8c0.1-1.1-0.5-1.9-2-2.4l-2-0.6c-1.9-0.6-2.8-1.7-2.7-3.2c0.1-1.1,0.5-1.9,1.5-2.6
			c0.9-0.7,2-1,3.3-1c1.3,0,2.3,0.4,3.1,1.1c0.8,0.7,1.1,1.6,1.1,2.8h-1.4c0-0.8-0.2-1.4-0.7-1.9c-0.5-0.5-1.2-0.7-2.1-0.7
			c-0.9,0-1.7,0.2-2.3,0.6c-0.6,0.4-1,1-1,1.7c-0.1,1,0.5,1.7,1.9,2.1l1.5,0.4l0.8,0.3c1.8,0.7,2.6,1.8,2.5,3.3
			c-0.1,1-0.5,1.9-1.3,2.5c-0.8,0.7-1.9,1-3.2,1.1l-0.5,0c-0.9,0-1.6-0.2-2.3-0.5c-0.7-0.3-1.2-0.8-1.6-1.3c-0.4-0.6-0.5-1.2-0.5-2
			l1.4,0c0,0.8,0.3,1.4,0.8,1.9c0.5,0.5,1.3,0.7,2.2,0.7c0.9,0,1.8-0.2,2.4-0.6C63,325.1,63.3,324.6,63.4,323.8z"/>
		<path class="st0" d="M68.9,327.2h-1.4l2.2-12.8h1.4L68.9,327.2z M70.1,310.7c0-0.5,0.4-0.8,1-1c0.3,0.1,0.5,0.2,0.7,0.3
			s0.2,0.4,0.3,0.7c-0.1,0.3-0.2,0.5-0.3,0.7c-0.2,0.1-0.4,0.2-0.7,0.3C70.4,311.5,70.1,311.2,70.1,310.7z"/>
		<path class="st0" d="M73.1,320.6c0.1-1.2,0.5-2.4,1.1-3.4c0.6-1,1.4-1.8,2.3-2.3c0.9-0.5,1.9-0.8,3-0.8c1.1,0,2,0.3,2.7,0.9
			c0.7,0.6,1.3,1.3,1.6,2.3c0.3,1,0.5,2.1,0.3,3.2l0,0.2c-0.2,2-1,3.6-2.1,4.9c-1.2,1.2-2.6,1.8-4.3,1.8c-1.4,0-2.6-0.6-3.4-1.6
			c-0.9-1-1.3-2.4-1.3-4.1l0-0.7L73.1,320.6z M74.5,321c-0.1,0.9,0,1.8,0.2,2.6c0.2,0.8,0.6,1.4,1.2,1.9c0.5,0.4,1.2,0.7,2,0.7
			c0.9,0,1.6-0.2,2.3-0.7c0.7-0.4,1.3-1.1,1.7-1.9c0.5-0.8,0.8-1.7,0.9-2.7l0-0.4c0.1-1.5-0.1-2.8-0.7-3.7c-0.6-1-1.5-1.5-2.7-1.5
			c-1.3,0-2.4,0.4-3.3,1.5c-0.9,1-1.5,2.4-1.7,4L74.5,321z M81.8,309.1l1.8,0l-3.2,3.3l-1.3,0L81.8,309.1z"/>
		<path class="st0" d="M89.6,314.4l-0.4,2.2c0.6-0.8,1.2-1.4,2-1.8c0.7-0.4,1.5-0.6,2.4-0.6c1.2,0,2.1,0.5,2.7,1.3
			c0.6,0.8,0.8,2,0.6,3.4l-1.4,8.3H94l1.4-8.3c0-0.4,0.1-0.9,0-1.3c-0.1-1.4-0.9-2.1-2.3-2.2c-0.8,0-1.6,0.2-2.3,0.7
			c-0.7,0.5-1.3,1.3-1.9,2.3l-1.5,8.8H86l2.2-12.8H89.6z"/>
		<path class="st0" d="M116,320.8c-0.3,2-0.9,3.7-1.9,4.8c-1,1.2-2.3,1.8-3.8,1.7c-0.8,0-1.6-0.2-2.2-0.6c-0.6-0.4-1.1-0.8-1.5-1.4
			l-0.4,1.8h-1.3L108,309h1.4l-1.3,7.2c1.1-1.4,2.5-2.1,4.2-2.1c1.2,0,2.2,0.5,2.8,1.4c0.7,0.9,1,2.1,1,3.6c0,0.5,0,1-0.1,1.5
			L116,320.8z M114.6,320.6l0.1-1.1c0-1.3-0.2-2.3-0.7-3c-0.5-0.7-1.2-1.1-2.1-1.1c-1.7,0-3.1,0.8-4.1,2.6l-1,5.8
			c0.2,0.8,0.6,1.4,1.2,1.8c0.6,0.4,1.2,0.6,2,0.7c1.2,0,2.2-0.4,3-1.4C113.8,323.9,114.4,322.5,114.6,320.6z"/>
		<path class="st0" d="M123.1,327.4c-1,0-1.9-0.3-2.7-0.9c-0.7-0.6-1.3-1.3-1.6-2.3s-0.5-2-0.4-3.1l0-0.4c0.1-1.2,0.5-2.3,1.1-3.4
			c0.6-1.1,1.3-1.9,2.2-2.4c0.9-0.6,1.9-0.8,2.9-0.8c1,0,1.8,0.3,2.4,0.8c0.7,0.5,1.1,1.2,1.4,2.1c0.3,0.9,0.4,1.9,0.3,3l-0.1,0.9
			h-8.9l0,0.3c-0.1,0.9-0.1,1.7,0.2,2.5s0.6,1.4,1.2,1.9c0.6,0.5,1.2,0.7,2,0.7c0.8,0,1.4-0.1,2-0.4c0.6-0.3,1.2-0.7,1.7-1.3
			l0.8,0.7c-0.6,0.7-1.3,1.3-2.1,1.7C124.9,327.2,124,327.4,123.1,327.4z M124.6,315.3c-1,0-1.9,0.3-2.8,1.1
			c-0.8,0.8-1.4,1.8-1.8,3.2l7.4,0l0-0.2c0.1-1.1-0.1-2.1-0.6-2.9C126.3,315.8,125.6,315.4,124.6,315.3z"/>
		<path class="st0" d="M135.2,311.1l-0.6,3.3h2.6l-0.2,1.2h-2.6l-1.4,8.5l0,0.7c0,0.9,0.4,1.3,1.2,1.3c0.2,0,0.6,0,1.1-0.1l-0.1,1.2
			c-0.5,0.1-0.9,0.2-1.4,0.2c-0.8,0-1.4-0.3-1.8-0.9c-0.4-0.6-0.5-1.4-0.4-2.5l1.4-8.5h-2.3l0.2-1.2h2.3l0.6-3.3H135.2z"/>
		<path class="st0" d="M145.9,327.2c0-0.3-0.1-0.6,0-0.9l0.1-0.9c-0.6,0.6-1.3,1.1-2,1.5c-0.8,0.4-1.6,0.5-2.5,0.5
			c-1.1,0-2-0.4-2.6-1c-0.7-0.7-1-1.5-0.9-2.5c0.1-0.8,0.4-1.6,0.9-2.2c0.5-0.6,1.3-1.1,2.2-1.4c1-0.3,2-0.5,3.2-0.5l2.6,0l0.2-1.5
			c0.1-0.9-0.1-1.6-0.6-2.1c-0.5-0.5-1.2-0.8-2.1-0.8c-0.9,0-1.7,0.2-2.4,0.7c-0.7,0.5-1.1,1.1-1.3,1.9h-1.4c0.2-1.1,0.7-2,1.7-2.7
			c1-0.7,2.2-1.1,3.5-1c1.3,0,2.3,0.4,3,1.2c0.7,0.8,1,1.8,0.9,3l-1.1,6.4l-0.1,1c0,0.4,0,0.8,0.1,1.3l0,0.1H145.9z M141.7,326.2
			c0.9,0,1.7-0.2,2.5-0.6c0.8-0.4,1.4-1.1,2-1.9l0.5-2.8l-2.3,0c-1.4,0-2.6,0.3-3.5,0.8c-0.9,0.5-1.4,1.2-1.5,2.2
			c-0.1,0.7,0.1,1.3,0.5,1.7C140.4,325.9,141,326.2,141.7,326.2z"/>
	</g>
	<path class="st0" d="M169.7,80.4l0.3,0.5c0,1.8,0.2,3.6,0,5.4c1.6-0.5,3.5-0.5,5.2-0.7c-0.3-0.1-0.7-0.2-1-0.6
		c-1-0.1-1.5-1.1-1.8-1.9c-0.2-0.6,0.2-1.1,0.5-1.6c-0.4-0.9-1.8-0.2-2.6-0.6C170.2,80.7,170,80.4,169.7,80.4 M144.9,78.8l-0.1,0.3
		l-4.5,4.5c6.8,5.9,14.4,9.7,23.2,10.9c1.4,0.2,3,0.1,4.3,0.5l-0.3-0.5v-5.9l0.2-0.3l-0.7,0.2C158.6,87.8,151.1,84.8,144.9,78.8
		 M193.2,78.9l-0.1-0.5c-0.6,1.2-2,2-3,2.9c-1.4,1.4-3.7,1.7-4.4,3.8c-0.8,0.7-1,1.8-2.1,2.2c-0.4,1-1.5,1-2.1,1.7
		c-1.8,1.6-3-1.1-4.7-1.4l-3.3,0.6c-1.2,0-2.3,0.4-3.4,0c0.2,2.2,0.2,4.6,0,6.8l0.4-0.3c10.5-0.5,19.5-4.4,27.3-11.5L193.2,78.9z
		 M153,74.8c0.1,0.5,0.8,0.8,0.6,1.5c-0.4,0.6-1.1,0.6-1.7,0.6c-1.2-0.2-2.1,0.7-3.3,0.9c-1.1,0.3-1.4-1-2.4-0.9
		c6,5.3,13,8.6,21.1,9l0.6,0.4l-0.3-0.7v-5.7l-0.5,0.2C161.7,79.8,157.1,77.9,153,74.8 M152.8,74.7c-0.3-0.2-0.5-0.3-0.5-0.7
		L152.8,74.7z M152.1,73.7l-0.1-0.2l0.1,0.3V73.7z M187.1,72.9l-0.1-0.4c-0.2,0.5-0.6,0.9-1,1.2c0,0.3-0.1,0.9,0.3,1.1
		c0.9,0.3,2,0.8,2.2,1.9c-0.3,1-2.2,1.8-1,2.9c0.4,0.5-0.5,0.7-0.4,1.2l0.3-0.4c1.3-1,2.7-2,3.9-3.2h0.2c-0.3-0.1-0.6,0.2-0.9,0
		c-0.6-0.3-0.7-0.8-0.7-1.5L187.1,72.9z M156.9,66.8c-1.3,1.6-2.8,3.2-4.3,4.4c0.7,0,1,0.8,1.6,1.1c3.3,2.7,7.3,4,11.1,5l-1-0.5
		c-0.8-0.9-1.9-1.9-1.9-3.2c0.8-0.3,0.7-1.1,1-1.7c0.7-0.7,1.4-1.1,2.3-1.3c-2.2,0.9-4.1-0.7-5.9-1.6
		C158.7,68.4,157.5,67.9,156.9,66.8 M177.9,66.2c-0.7,0-1,0.5-1.5,0.9c-0.6,0.3-0.9-0.7-1.4-0.4c0,0.1,0.1,0.1,0.2,0.2
		c0.1,0.2,0.2,0.5,0,0.6c-0.7,0.7-1.1-0.3-1.8-0.3v0.3c0,0.1,0,0.4-0.3,0.3c-0.4-0.7-1.3-0.5-1.8-1.1c-0.3-0.1-0.5,0-0.7,0.2
		c-0.1,0.3-0.8,0-0.7,0.5c-0.5,0.2-0.6,0.8-1,1.1c-0.7-0.1-1,0.6-1.6,0.6c0.1,0.1,0,0.3,0.2,0.4c0.4,0.2,0.8,0.2,1.3,0.2
		c0.7-1,1.7-0.2,2.7-0.6c0.6,0.1,0.2,0.7,0.6,0.9c0.9-0.3,1.6,0.8,2.3,0.1c0-1,1.1-0.9,1.7-1.2c1-0.6,2.1-1.4,2-2.7L177.9,66.2z
		 M175.4,64.6c-0.1,0.2-0.3,0.5,0,0.6c0.5-0.5,1.6-0.5,1.7-1.3C176.3,63.8,175.9,64.2,175.4,64.6 M162.8,60.8
		c-0.9,1.5-2.7,2.9-4,4.3c2.3,1.9,4.9,3.1,7.8,3.6c0.1-0.6-0.1-1.3,0.2-1.8c0.2-0.5,0.8-0.5,1.2-0.4c0.3,0,0.4-0.3,0.3-0.6
		c-0.6-0.1-0.3-0.8-0.6-1.2c0-0.2,0.4-0.2,0.3-0.5c-0.4-0.3,0.2-0.7-0.2-1.1c0.2-0.1,0.3-0.3,0.5-0.3c-1.4,0.7-2.9-0.1-4.1-0.7
		C163.7,61.8,162.9,61.5,162.8,60.8 M190.2,60.8c-0.6,0-1.4,0.3-1.9-0.1c-0.2-0.2-0.3,0.1-0.3,0.3c-0.2,0.3-0.4,0.7-0.9,0.6
		c-0.4-0.2-0.4-0.6-0.5-0.9c0,0.2-0.1,0.5-0.1,0.7c-0.5,0.5-0.6,0.9-0.9,1.5c-0.5,0.5-1.2,0.3-1.7,0.7c-0.1,1-1.2,0.8-1.9,1.2
		c0,0.1,0.1,0.2,0.2,0.3c0.3,0.1,0.7,0.1,0.9-0.2c0.9,0.2,0.7-0.9,1.2-1.3c0.5-0.1,0.9-0.5,1.4-0.2c0.5,0.6,0.6,1.4,0.5,2.2
		c-0.5,0.5-0.3,1.4-0.6,2c0.1,0.7-0.8,1-0.7,1.8c-0.3,0.3-0.8,0.4-1.2,0.4c-1.7-0.6-3.5-1.1-5.4-1.2c-0.2,0.1-0.3,0.2-0.3,0.4
		c0.8,0.4,1.7,0.4,2.6,0.8c0.7,0.2,1.2,1.1,2.2,0.8c0.8-0.4,2.1,0.3,2.6-0.6c-0.1-0.8,0.6-1.4,1-2.1l0.3-0.1
		c0.4,0.5,0.4,1.1,0.6,1.6c0.6-0.7,1.1-1.4,1.6-2c1.4-2.1,2.7-4.3,3.2-6.7C191.3,60.5,190.7,60.6,190.2,60.8 M177.9,60.7
		c0,0.3,0.1,0.8,0.3,1c0.8-0.1,0.5,1,1.3,0.9c0.4-0.1,0-0.5,0.1-0.8c-0.1-0.7-0.8-0.7-1.2-1.1c0-0.1,0-0.2,0.1-0.3
		C178.2,60.3,178.1,60.5,177.9,60.7 M160.7,59c-0.1,0.5-0.5,1-0.9,1.4l0.1,0c0.5-0.4,0.9-1,1.6-1.1L160.7,59z M153.9,57.2
		c0.6,1.1,0.9,2.4,1.6,3.5c0.4,1,1.3,1.8,1.7,2.8c0.4-0.8,1.2-1.4,1.8-2.1c0-0.3,0-0.6-0.2-0.8c-0.2-0.5,0-1.1-0.4-1.5
		c-0.6,0.2,0.2,0.8,0,1.1c-0.2,0.1-0.5,0-0.5-0.3c-0.5-0.1-0.9-0.5-1-1c0.4-0.3-0.1-0.4-0.2-0.6c-0.2-0.1-0.2-0.1-0.4,0.1
		c-0.1,0-0.2,0-0.3,0C155.8,57.1,154.4,57.9,153.9,57.2 M142.7,54.6l-0.5,0.2c-2,0-4.1,0.1-6.1-0.1l0.3,0.4l0.5,4
		c0.2,1.5,0.9,3,0.8,4.5c0.2-0.3,0.1-1,0.7-1c-0.2-0.5,0.5-0.9,0.1-1.3c0.2-1,0.3-2.1,1.2-2.9c1.1,0,1.2-1.5,2.3-1.6
		c0.6,0,0.9,0.7,1.2,1C142.5,56.9,142.5,55.5,142.7,54.6 M134.2,54.6l-0.6,0.2l-6.1,0c0.3,7,2.2,13.3,5.3,19.1
		c1.5,2.9,3.8,5.5,5.8,8.1l4.3-4.5l0.5-0.2c-0.7-0.5-1.4-1.4-2-2.1c-0.7-0.2-1.5-0.7-1.8-1.4c-0.2-0.2,0-0.7-0.3-0.8l-0.3,0.3
		c-0.8,0.4-1.1-0.4-1.6-0.7c-0.7-0.4-0.3-1.6-1.3-1.4c-0.3,0-0.5-0.4-0.7-0.6c-0.8,0.1-1.1-0.8-1.5-1.3c-0.1,0.2,0,0.5-0.3,0.6
		c-0.9,0.2-1.2-0.9-1.8-1.3c-0.2,0.1-0.3,0.2-0.5,0.2c-0.5-0.5-0.9-1.1-0.9-1.8c-0.7-0.8-0.4-2.1-0.3-3.1c0.1-0.3,0.5-0.4,0.4-0.7
		c0.2-0.5,0.7-0.5,1.1-0.5c0.2,0.1,0.3,0.3,0.4,0.4c0.3-0.2,0.9,0,0.7-0.6c0.4-0.3,0.9-0.4,1.4-0.5c0.3,0.4,0.5,0.9,1,1.3l-0.3-0.5
		c-0.5-2.1-0.9-4.3-1-6.6c0-0.1-0.3-0.2-0.1-0.3l0,0.1C134.1,55.3,134.1,54.9,134.2,54.6 M144.7,54.5L145,55c0,1.4,0.6,2.8,0.3,4.3
		c0.2-0.4,0.3-1,0.8-1.2c0.1-0.4-0.5-0.5-0.5-0.9c0.4-0.8,0-2.1,1.1-2.5C146,54.8,145.3,55,144.7,54.5 M195.4,54.4
		c0.1,1.3-0.2,2.6-0.3,3.9l0.7,0.8c0.2,0.3,0.1,0.8-0.2,1c-0.3,0.2-0.7,0.2-1-0.1c-0.9,2.9-2,5.8-3.8,8.3c-0.7,0.9-1.4,2.2-2.3,2.7
		l2,1.7c0.1-0.1,0.1-0.3,0.1-0.4c0-0.3,0.1-0.6,0.5-0.5c1,0,1,1,1.5,1.5c-0.1,0.8,0.6,1.5,0.4,2.3c5.5-5.8,8.2-12.9,8.7-20.7
		l0.3-0.3c-2,0.2-4,0.1-6,0.1L195.4,54.4z M204.1,54.6l-0.4-0.3l0.2,0.6c-0.3,7.2-2.8,13.6-6.9,19.3c-0.8,1-1.6,2.1-2.6,2.8
		c1.7,1.3,3.5,3.3,4.8,4.8l0.2-0.3c6.7-7.6,10.4-16.4,10.8-26.5l0.3-0.5l-0.3,0.1L204.1,54.6z M189.2,54.3l0.7,0.7
		c0.7,0.5,0.2,1.4,0.9,1.8c0.9,0.4,1.2,1.4,1.5,2.2c0.1-0.2,0.1-0.4,0.2-0.6c0.3-1.2,0.3-2.5,0.6-3.7
		C191.9,54.6,190.4,54.8,189.2,54.3 M190.6,52.1c-0.2,0.1-0.4,0-0.6,0C190.2,52.1,190.4,52.1,190.6,52.1 M149.9,51.4
		c-1.8,0.6,0.3,1.9-0.1,3c-0.2,0.6-0.9,0-1.4,0.3l-0.2,1.2c-0.3,0.7-1.1,0.2-1.5,0.6c-0.3,0.4,0,0.9,0.3,1.2
		c-0.6,1.4,1.4,1.8,1.4,3.1c0.6,0.8-0.1,1.9,0.8,2.6c0.2,1.4-0.2,3.3,1,4.4l0.2,1.3c0.3,0.9-1.1,0.7-0.9,1.5
		c0.3-0.1,0.3,0.2,0.3,0.3v0c1.7-1.9,3.6-4,5.6-5.7l-0.8-0.8c-1.5-2.3-2.8-4.8-3.3-7.5l-0.6-0.3c0,0.7-0.3,1.2-0.3,1.9l-0.2,0.3
		c-0.5,0-0.7-0.4-1.1-0.6c-0.1-0.2-0.3-0.6,0-0.8c0.2,0,0.4,0,0.5,0.1c0.2-0.2,0.1-0.6,0.2-0.9c0.1-0.5-0.4-1-0.1-1.5
		c0.4,0,0.7,0.5,0.9,0.7c0.4,0.1,0.7-0.2,1.1-0.4c0-0.4,0.5-0.9,0-1.1c0.3-0.9,0.1-1.7,0-2.6C151.3,51.2,150.5,51.3,149.9,51.4
		 M168.8,46c-0.3-0.4-1.1-0.1-1.6,0c0.4,0.4,0.3,1.2,0.5,1.8c-0.6,1.1-1.7,1.3-2.8,1.6c-0.3,0.3-0.2,1.1-0.9,1
		c-0.2,0.5-1,0.8-0.7,1.5c-0.3,0.7-0.2,1.7-0.4,2.5c-1.3,0.8-0.9-1.1-1.6-1.5l-0.2,0.4c-0.3,0.1-0.4-0.1-0.6-0.3
		c-0.2-0.1-0.5-0.1-0.7,0c-0.3,0.5-0.7,0.9-0.6,1.5c-0.1,0.4-0.8,0.3-0.7,0.7c0.7,0,1.5-0.1,2.2-0.3c0.5,0.1,0.9-0.2,1.4-0.3
		c0.2,0.1,0.4,0.3,0.3,0.5h0.2c0.3-0.3,0.5-0.6,0.3-1c0-0.5,0.5-0.5,0.8-0.6c0.3,0.1,0.1,0.4,0.1,0.6c1,0.4-0.2,1.1-0.4,1.6
		c-0.3,0.4,0,1.3-0.8,1.2c-0.1,0-0.3-0.2-0.2-0.4h-0.1c0,0.3,0.2,0.8,0.6,1c0.6-0.5,0.6-1.4,1.5-1.5c0.5-0.5-0.2-1.2,0.5-1.6
		c1.1,0,2.4-0.5,3.2,0.4c-0.1,0.4-0.2,0.6,0.1,0.9c-0.2,0.5-0.4,1-0.8,1.5c0.1,0.3,0,0.6-0.2,0.8c-0.3,1.3-1.8,0.7-2.7,1.2
		c1.4,1,3,1.4,4.8,1.3c0.9-0.1,0.5-1.2,1-1.7c0.3-1.5,1.7-0.5,2.5-0.9c0.3-0.7,0.6-1.3,0.7-2c-0.5-0.3-0.8-1-0.6-1.6
		c-0.4-0.5-0.3-1.4-1.1-1.5c-0.1-0.2,0-0.4,0.1-0.5c0-0.5,0.5-0.6,0.6-1c-0.5-0.3-0.4-1.1-0.3-1.5c-0.8,0.2-0.9-0.9-1.6-1.1
		c-0.1-0.5-0.7-0.6-1.1-0.7c-1,0.5-1.2-0.8-2-1.1c-0.1-0.2-0.3-0.6,0-0.8c0.4-0.3,0.9,0,1.4-0.1L168.8,46z M158.2,42.4h0.5
		c0.5,0.5,1.4,0.4,1.8,1.1c0.2,0.4-0.4,0.3-0.3,0.7c0.1,0.1,0.3,0.1,0.3,0.3c0.4,0.1,0.3-0.2,0.5-0.4c0.5-0.5,0.6,0.5,1.2,0.5
		c0.4-0.2,0.9-0.3,1.2,0.1c0.3-0.3,1.1,0,1.2-0.6c0.7-0.7,0.3-1.8,1.3-2.3c0.3,0.2,0,0.5,0.1,0.8c0.7,0.3,1.4-0.6,2,0.1
		c-0.5-1.4-0.4-3.2-0.3-4.7C164,38.5,160.8,39.7,158.2,42.4 M169.9,37.9c0.4,1.2,0,3.1,0.3,4.5l1.6,0.5c0.5-0.8,1.5-0.9,1.9-1.6
		c0.3-0.2,0.6,0,0.8,0.3c0.1,0.6-0.1,1.2-0.3,1.7c-0.6,1.2-2,1.3-2.8,2.2c0.5,0.3,0.8-0.2,1.2-0.3c0.6,0.1,1.1,0.6,1.5,1
		c0.4,0.2,0.7-0.1,1.1-0.2c0.2-1.8,2.5-1.6,3.2-3.2l-0.4,0.1c-0.2-0.2-0.6-0.1-0.6-0.5c0.4-0.3,0.8-0.9,1.3-1c-2-1.2-4-2.3-6.2-2.8
		C171.7,38.2,170.8,38.2,169.9,37.9 M151.1,37.1c-3,3.6-5,7.6-5.9,12c-0.2,1.1-0.1,2.3-0.5,3.2c0.8-0.3,1.9-0.2,2.7-0.1
		c-0.5-0.3-0.1-0.9-0.4-1.2c-0.1-0.5-0.2-1.2,0.4-1.6c-0.1-0.9,0.9-1.3,1-2.2c0.2-0.9,1.3-0.3,1.8-0.8c0.3-0.2,0-0.5,0-0.7
		c0.4-0.6,1.1-0.6,1.6-0.9c0.4-0.6,0.8-1.2,1.5-1.5c1.3,0.1,1.3-1.8,2.6-1.8C154.3,40.3,152.6,38.6,151.1,37.1 M186.5,36.9l-0.1,0.3
		c-2,2.1-4.2,4.2-6.1,6.4c0.1,0.3,0.3,0.5,0.6,0.6c0.1-0.5,0.4-1,0.4-1.5c0.5-0.7,1.3-0.3,2-0.1c1-0.2,2,0.2,3.1,0.2
		c0.8,0.4,0.9,1.4,1.6,1.8c0.2,0.3,0,0.6-0.2,0.8c0.2,1.6,1-0.4,1.8,0c0.3,0.1,0.8,0.1,1,0.5c0.1,0.7,1,0.5,1,1.2
		c-0.1,0.3-0.4,0.4-0.6,0.6c0.2,0.6-0.7,1.1-0.4,1.8c1.3,0.2,1.3-1.2,1.9-1.9c-0.3-1.1-0.6-2.3-1.2-3.3c-0.7-0.1-1.2-1-1.9-1.2
		c-1.4-0.5,0.2-1.4,0.1-2.2C188.7,39.4,187.5,38.2,186.5,36.9 M144.9,30.9l0,0.4l-2.4,3c-3.8,5.3-5.7,11.4-6.2,18.1l6-0.1l0.6,0.2
		c-0.2-0.1-0.2-0.4-0.3-0.6c0.5-6.2,2.7-11.7,6.9-16.3C147.9,34,146.3,32.5,144.9,30.9 M169.9,29.2l0.2,0.5l-0.1,5.9l0.6-0.1
		c3.6,0.5,6.9,1.6,9.8,4l0.2,0.5c1-1.4,2.5-2.5,3.6-3.9l1.1-0.6l-0.5-0.2c-2.4-2-5-3.5-7.8-4.5C174.7,29.9,172.3,29.6,169.9,29.2
		 M167.6,29.2l-0.4,0.2c-5.5,0.4-10.3,2.7-14.5,6.1c1.6,1.2,3.1,3,4.6,4.3c0.1-0.1,0.2-0.3,0.3-0.5c2.1-1.5,4.2-2.8,6.6-3.4
		c1.1-0.1,2.2-0.6,3.3-0.4C167.3,33.6,167.3,31.3,167.6,29.2 M139,24.7c-6.2,6.9-10,14.8-11.1,23.7c-0.2,1.3-0.1,2.6-0.3,4
		c2.2-0.2,4.5-0.2,6.7,0l-0.2-0.8c0.4-6.9,2.6-13.1,6.5-18.6c1-1.1,1.7-2.5,2.9-3.3c-1.4-1.3-2.9-2.9-4.4-4.3L139,24.7z M198.8,24.5
		c-1.2,1.6-2.8,3.1-4.3,4.7l-0.7,0.1c0.5,0.1,0.6,0.7,0.9,1c1.6,0.8,2,2.5,3.4,3.5c0.8,1.6,2.6,2.9,2.7,4.8
		c1.9,4.2,3.2,8.6,3.3,13.5l-0.2,0.3c0.2,0,0.4-0.1,0.5-0.2l6.3-0.1c-0.4-0.6-0.2-1.5-0.3-2.2C209.4,40.1,205.3,31.8,198.8,24.5
		 M150.5,26.5c-1.4,0.9-2.6,2.1-4,3c1.6,1,2.9,2.7,4.4,4.1l0.1,0.4c3.7-3.5,8.2-5.6,13-6.6c1.2-0.1,2.3-0.5,3.4-0.3
		c-0.1-2.1-0.3-4.2,0-6.3C161.2,21.2,155.5,23.1,150.5,26.5 M189.5,20.6c-0.5,0.4-0.8-0.4-1.3,0.1c0,0.2,0,0.5,0.2,0.6
		c0.9,0.3,1,1.7,2.2,1.4c0.3-0.4-0.2-0.8-0.1-1.3C190.3,21,189.9,20.8,189.5,20.6 M169.8,20.6L170,21c0,2,0.1,4.2-0.1,6.1
		c0.8-0.3,1.7,0.1,2.5,0.1c4.3,0.7,8.3,2.1,11.7,4.7c-0.4-0.4-0.9-0.9-1-1.6c0.1-0.1,0.1-0.1,0.3-0.1c0-0.7-0.7-1-0.8-1.6
		c0.1-0.1,0.3-0.3,0.5-0.2c0.7,0.7,1.4,1.4,1.9,2.2c0.5-0.2,0.9,0.1,1.2,0.4c0.6,0.4,0.2,1.2,0.7,1.6c0.1,1.3,1.6,2,1.6,3.3
		c0,0.3,0.4,0.1,0.5,0.2l1.3,1.6c-0.2,0.3,0,0.7,0.2,0.9c0.6,0.3,0.9-0.5,1.5-0.4c0.9,0.5-0.1,1,0,1.6c0.3,0,0.7-0.3,1,0.1
		c0.1,0.5-0.4,0.8-0.6,1.1c0,0.5,0.4,0.4,0.7,0.5c0.4,0,0.6,0.5,0.5,0.8c1.1,1.1-0.3,2.3,0.2,3.5c0.4,0.8-0.1,1.5-0.6,2.1
		c0,1-0.8,1.5-1.2,2.4l-1.1,0.2c-0.6,0.6,0.5,1.3-0.1,1.7l2.4,0l-0.3-0.3c-0.3-1-0.3-2.2,0.3-3.1c0.4-0.8,0.5-1.7,1.2-2.4
		c0.1,0,0.4-0.3,0.6,0c0,0.7,0,1.6-0.4,2.2c0.7,1,0.6,2.3,0.7,3.5c2.1-0.1,4.3-0.2,6.4-0.2l-0.2-0.4c-0.3-4-1.2-7.8-2.8-11.3
		c-0.4,0-0.8,0.4-1.3,0.3c-0.2-0.1-0.3-0.2-0.3-0.4c-0.9-0.8-1.4-1.9-2.4-2.7c-1.1,0.1-1.6-1.2-2.6-1.3c-0.9-0.4-0.3-1.8-1.6-1.4
		c-0.6-0.3-1.2-0.7-1.4-1.5c0-1.1-0.2-2.3-1.2-3.1c-0.8-0.3-1.1,0.8-1.9,0.6c-0.4-0.2-0.2-0.8-0.4-1.2c-0.2-0.3-0.5-0.6-0.5-1
		c1-1.4-1.2-1.3-0.7-2.7c-0.1-1-1.1-1.3-1.6-2.1c-3.4-1.5-6.8-2.6-10.6-3C171.5,20.8,170.6,21,169.8,20.6 M174.9,15.2l-3.1,1.3
		c-0.3-0.1-0.8-0.2-0.9,0.1c-0.1,0.1,0,0.3,0,0.4c1.2,1.5,3.2,0.7,4.6,0.4c1,0.4,2-0.1,2.8-0.7v-0.2
		C177.5,15.5,176.2,15.3,174.9,15.2 M167.4,11.9c-8.7,0.4-16.5,3.3-23.4,8.3c-1.3,0.9-2.5,2.3-3.9,3.1h0.2c1.7,1.3,3.3,3.1,4.8,4.6
		l0.1-0.3c6.3-5.8,13.7-9,22.2-9.4l-0.2-0.5l-0.1-5.2L167.4,11.9z M169.9,11.7c0.3,1.7,0.2,4.1,0.1,6c0-0.2,0.1-0.4,0.2-0.5
		c0.3-0.2,0.6,0.1,0.7,0.3c0,0.3,0.2,0.8-0.1,1c0.3,0,0.4-0.2,0.6-0.2c5,0.4,9.6,1.8,13.7,4.2v-0.1c0.8-0.4,1.9-1,2.8-0.2
		c1-0.4,1.2,0.9,2.1,1c1,0.6,2.2,1.7,2.3,2.9c0.2,0.4,0.8,0.7,0.9,1.1c0.7-1.5,2.1-2.5,3.3-3.8l0.8-0.3c-6.6-6.3-14.4-9.7-23.1-10.9
		C172.7,12,171.2,12.1,169.9,11.7 M208.2,34.4c4.5,8.7,5.8,20.7,2.9,30.6c-3,11.6-12.8,23.4-24.2,28.2c-12.8,6.3-31.1,4.7-42.5-3.5
		C128.5,78.8,122,60,126.8,41.5c2.9-11,11.7-22.1,22.4-27.2c6-3,12.6-4.6,19.8-4.7C185.4,9.6,201.1,19.2,208.2,34.4"/>
	<path class="st0" d="M209.7,17.8c3.2,2.9,4.6,6.6,5.6,10.4l0.5,1.2c-4.6-3.3-8.8-7.8-11.8-12.5l-3.6-3.7
		C203.6,14.6,207,15.4,209.7,17.8"/>
	<path class="st0" d="M128.9,23.5c-2.1,2.6-4.8,4.4-7.3,6.6c1.3-2.7,1.3-5.9,3.2-8.4c2.6-4.6,7.5-6.2,11.9-7.9
		C133.4,16.6,131.2,20.2,128.9,23.5"/>
	<path class="st0" d="M221,28.3c1,4.6-0.5,9,0.5,13.6l0,0c-2.5-4.9-7.8-7.2-11.4-11.1c-2.1-2.3-3-5.2-3.5-8.2
		c2.1,5,7.7,6.1,10.9,10.4c1.1,1,1.4,2.3,2.1,3.4l0.1-0.1c-1.8-4-2.5-8.4-3.8-12.6c-0.6-1.8-1.9-3.6-3.7-4.8
		C216.5,19.9,220.1,24.3,221,28.3"/>
	<path class="st0" d="M124.9,19.8c-4.3,3-4,8.3-5.4,12.7c-0.4,1.6-1.2,3.1-1.6,4.8l0.1,0.1c0.7-1.9,2-3.7,3.5-5.2
		c3.1-2.8,7.6-4.6,9.1-8.8c-0.1,5.8-4.9,10.4-9.6,13.6c-1.9,1.7-3.8,3.6-4.8,5.7c-0.1-1.5,0.2-2.9,0.1-4.5
		c-0.5-5.1-0.9-10.8,2.7-14.6C120.7,21.7,122.7,20.3,124.9,19.8"/>
	<path class="st0" d="M223.7,29.3c3.8,5.2,4.7,13.5,1.9,19.5c-1,2.5-1.8,5.2-2.2,8c-0.2-0.5-0.2-1.1-0.4-1.7
		c-1.5-5.8-7.1-10-9.3-15.5c-0.7-1.8-1.3-3.7-1.7-5.6c2.4,4.5,8.4,6.8,10.1,11.8c0.7,1.3,0.6,2.8,1,4.2c0.1,0,0.2-0.1,0.2-0.2
		c-0.7-5.1-0.5-10.5,0.2-15.5c0-2.7-0.3-5.4-1.8-7.5C222.6,27.4,223.1,28.5,223.7,29.3"/>
	<path class="st0" d="M115.7,27.7c-3.3,5-0.6,11.3-0.7,17.1l-0.4,5.9c0.1,0,0.1,0.2,0.2,0.1c0.2-0.7,0.2-1.4,0.4-2
		c0.8-4.7,4.9-8.1,8.5-11.3c0.8-0.8,1.4-1.7,1.8-2.7c-0.3,2.3-1,4.7-2,6.9c-2.8,5.4-7.9,9.9-8.9,16.1c-0.5-6-4.5-10.4-4.1-16.8
		c-0.1-5.1,2-9.3,5-13.1C115.5,27.7,115.6,27.7,115.7,27.7"/>
	<path class="st0" d="M227.3,63.2c-2.3,3.2-5,6.3-7.2,9.6c0.2-2.6,0.5-5.8-0.5-8.3c-1.8-5.3-3.3-10.7-3.8-16.6l0.1-2.2
		c1.3,6,7.2,10.1,6.8,16.8c0.1,1.6-0.4,3-0.7,4.4l0.1,0.1l0.3-0.3c0.9-3.3,1.3-6.7,2.7-9.8c1.9-4.4,4.3-8.9,3.3-14.2
		C231.4,48.9,230.5,57.3,227.3,63.2"/>
	<path class="st0" d="M114,61.1c0.6,2.2,0.8,4.6,1.7,6.6c0.1,0,0.2,0,0.2-0.1c-2.2-6.3,1-12.1,4.2-17c0.8-1.3,1.2-2.8,1.6-4.3
		c0.3,2.8-0.4,6.1-0.8,9c-0.8,3.8-2,7.3-3,10.9c-0.7,2.3-0.5,4.8-0.1,7.2l-0.3-0.3c-2.4-4.4-7.1-7.8-8.5-12.6
		c-1.2-3.8-1.9-8.2-1.1-12.4c0.4-1.6,0.6-3.3,1.3-4.7C108,50.3,112.5,55.2,114,61.1"/>
	<path class="st0" d="M218.4,73.5c-0.2,2.9-1.1,5.5-2.7,7.9h0.3c2.1-2.7,3.7-5.7,6.1-8.3c3.8-3.7,7.6-7.4,8.1-12.5
		c1.3,8.5-3.5,15.9-10.5,20.7c-2.9,1.9-5.8,3.7-8.6,5.8v-0.3c4.3-7.1,2.2-16.8,4.8-24.6l1-2.6C216.4,64.5,218.5,68.6,218.4,73.5"/>
	<path class="st0" d="M125,83.1c0.5,1.6,1.4,3,2,4.6c-6.5-4.4-15.3-8.6-18.2-16.7c-1.2-2.8-1.3-6.3-1.1-9.4c0.5,7.2,8.3,11,11.8,17
		c0.9,1.2,1.6,2.6,2.7,3.6c-0.2-0.8-0.9-1.4-1.2-2.2c-1.3-2.5-1.7-5.5-1.4-8.5c0.3-3.7,1.9-7.1,1.3-11
		C124.2,67.2,123.2,75.7,125,83.1"/>
	<path class="st0" d="M208.7,88.4c-1.1,1.9-2.7,3.8-4.4,5.3c0.6,0,1.1-0.5,1.6-0.8c4.7-4.6,10.8-6,15.8-9.7c2-1.6,3.9-3.7,4.8-6
		c-1,7.7-8.6,15-15.9,17.3c-3.7,1-7.7,1.3-11.4,2.6c6.2-5.3,5.8-13.5,9.9-19.7c1.3-1.8,2.4-3.6,3.9-5.3
		C210.5,77.1,211.6,83.6,208.7,88.4"/>
	<path class="st0" d="M131,81.9c2.2,5.4,3,11.4,8,15.4c-5.4-1.8-11.8-1.3-16.6-4.6c-5.2-3.2-9.9-8.7-10.9-14.7
		c3.6,8.2,12.7,8.9,18.7,13.8c1.1,1,2.3,1.8,3.5,2.4l0.1-0.1c-1.4-1.3-3-2.7-4-4.3c-3.5-4.9-2.3-11.9-5-17.1
		C127.4,75.6,129.6,78.6,131,81.9"/>
	<path class="st0" d="M195.5,97.8c-1.3,0.9-3,1-4.4,1.7c1.9,0,3.7-0.6,5.7-0.8c7.2-1.1,15.4,0,20.4-6.1c-1.9,4.3-6.5,7.8-10.8,9.3
		c-7.3,2.8-14.7-0.6-21.7-1.8l-1.4-0.2v0c3.3-0.8,6.6-1.8,9.3-4.2c3.9-3.8,7.4-7.7,11.8-10.6C201.2,89.2,200.9,95.2,195.5,97.8"/>
	<path class="st0" d="M145.2,95.9c2.8,2.4,6.1,3.6,9.7,4.3c-0.8,0.3-2,0.2-2.9,0.5c-6.3,1.6-13.4,4.1-20.1,1.8
		c-4.4-1.4-8.9-4.8-11.1-9.1c5.8,6.6,15.3,4.4,23,6.1c1.1,0.2,2.1,0.6,3.2,0.4c-0.9-0.6-2.2-0.5-3.2-1c-6-2.1-6.9-8.7-10.2-13.1
		C137.9,88.5,141.4,92.2,145.2,95.9"/>
	<path class="st0" d="M192.5,104.8c4.7,1.7,10.8,1.3,14.8-1.6c-2.1,2.6-4.9,4.4-7.8,5.5c-6.5,2.4-13.3-0.1-18.4-4
		c-2.1-1.3-3.9-3.2-6.6-3c-1,0-1.9,0-2.7,0.3c5,2.3,9.6,5.5,13.8,9.5c-0.7,0.8-1.6,1.6-2.5,2.3c-4-4.4-8.5-8.6-13.6-11
		c-1,0.1-1.9,0.7-2.8,1.2c-4.1,2.6-8.1,5.9-11.2,10l-2.6-2.1c4.2-4.2,8.8-7.5,13.8-9.9c-5-1.6-8.2,2.6-12,4.7
		c-4.4,3.1-10.7,4.5-16,2.4c-2.9-1.1-5.6-2.7-7.7-5.3c4.2,2.9,10.4,3.2,15.1,1.3c6.4-2.8,13-6.3,20.7-4.6c1.2,0,2.4,1.2,3.5,0.2
		c5.7-1.5,12.1-0.5,17.1,2.1L192.5,104.8z"/>
	<path class="st0" d="M35.7,212.5c6,0,8.2-5.1,8.2-9.6c0-4.9-2.1-9.6-8.7-9.6h-4.5v19.2H35.7z M25,188.3h11c8.8,0,14,5.2,14,14.6
		c0,9.3-6.4,14.6-13.9,14.6H25V188.3z"/>
	<polygon class="st0" points="52.9,188.3 71.5,188.3 71.5,193.5 58.7,193.5 58.7,200.1 71.2,200.1 71.2,205.3 58.7,205.3 
		58.7,212.2 71.5,212.2 71.5,217.4 52.9,217.4 	"/>
	<path class="st0" d="M93.7,212.5c6,0,8.2-5.1,8.2-9.6c0-4.9-2.1-9.6-8.7-9.6h-4.5v19.2H93.7z M83,188.3h11c8.8,0,14,5.2,14,14.6
		c0,9.3-6.4,14.6-13.9,14.6H83V188.3z"/>
	<polygon class="st0" points="110.9,188.3 129.5,188.3 129.5,193.5 116.7,193.5 116.7,200.1 129.2,200.1 129.2,205.3 116.7,205.3 
		116.7,212.2 129.5,212.2 129.5,217.4 110.9,217.4 	"/>
	<path class="st0" d="M146.5,196c0-2-1.9-3.3-4.3-3.3c-2.9,0-4.7,1.3-4.7,3.2c0,2,1.9,3,3.4,3.5l5.3,1.7c3.9,1.2,6.6,3.5,6.6,8
		c0,3.6-2.6,8.9-10.6,8.9c-10.1,0-11-6.5-11-9.1l5.8-0.1c0,3.1,2.4,4.3,5.3,4.3c2,0,4.8-1,4.8-3.2c0-1.5-0.7-2.4-3.5-3.4l-6.4-2.3
		c-3.2-1.2-5.5-4-5.5-7.3c0-3.7,2.6-9.1,10.1-9.1c9,0,10.4,6,10.4,8.1L146.5,196z"/>
	<path class="st0" d="M166.7,195.3L166.7,195.3l-3.8,11.3h7.5L166.7,195.3z M172,211.3h-10.7l-1.9,6.1h-6.3l10.6-29.1h6.1l10.5,29.1
		H174L172,211.3z"/>
	<path class="st0" d="M191.5,201.2c4,0,5-2.1,5-4c0-2.1-1-4-5.2-4h-3.7v7.9H191.5z M191,205.9h-3.4v11.5h-5.8v-29.1h10.9
		c6.1,0,9.6,3.8,9.6,8.7c0,3.1-1.7,7.1-5.4,8.2l6.8,12.3h-6.9L191,205.9z"/>
	<path class="st0" d="M215.1,201.2c4,0,5-2.1,5-4c0-2.1-1-4-5.2-4h-3.7v7.9H215.1z M214.6,205.9h-3.4v11.5h-5.8v-29.1h10.9
		c6.1,0,9.6,3.8,9.6,8.7c0,3.1-1.7,7.1-5.4,8.2l6.8,12.3h-6.9L214.6,205.9z"/>
	<path class="st0" d="M242,192.9c-5.4,0-8.1,4.7-8.1,9.9c0,5.2,2.7,9.9,8.1,9.9c5.4,0,8.1-4.7,8.1-9.9
		C250.1,197.6,247.4,192.9,242,192.9 M242,187.7c9.1,0,14.2,7.3,14.2,15.1c0,7.8-5.1,15.1-14.2,15.1c-9.1,0-14.2-7.3-14.2-15.1
		C227.8,195,232.9,187.7,242,187.7"/>
	<polygon class="st0" points="259.1,188.3 264.9,188.3 264.9,212 276.1,212 276.1,217.4 259.1,217.4 	"/>
	<polygon class="st0" points="278.4,188.3 284.2,188.3 284.2,212 295.4,212 295.4,217.4 278.4,217.4 	"/>
	<path class="st0" d="M310.7,192.9c-5.4,0-8.1,4.7-8.1,9.9c0,5.2,2.7,9.9,8.1,9.9c5.4,0,8.1-4.7,8.1-9.9
		C318.8,197.6,316.1,192.9,310.7,192.9 M310.7,187.7c9.1,0,14.2,7.3,14.2,15.1c0,7.8-5.1,15.1-14.2,15.1c-9.1,0-14.2-7.3-14.2-15.1
		C296.5,195,301.6,187.7,310.7,187.7"/>
	<path class="st0" d="M44.6,236c0-2.7-2.6-4.4-5.8-4.4c-3.9,0-6.3,1.7-6.3,4.4c0,2.7,2.6,4.1,4.6,4.7l7.3,2.3c5.3,1.7,9,4.7,9,10.8
		c0,4.8-3.5,12.1-14.4,12.1c-13.7,0-15-8.9-15-12.4l7.9-0.2c0,4.2,3.3,5.8,7.2,5.8c2.7,0,6.5-1.3,6.5-4.4c0-2.1-0.9-3.2-4.8-4.6
		L32,247c-4.4-1.6-7.4-5.4-7.4-9.9c0-5.1,3.5-12.3,13.7-12.3c12.2,0,14.2,8.1,14.2,11L44.6,236z"/>
	<path class="st0" d="M75,231.9c-7.4,0-11.1,6.4-11.1,13.5c0,7.1,3.7,13.5,11.1,13.5c7.4,0,11.1-6.4,11.1-13.5
		C86.1,238.2,82.4,231.9,75,231.9 M75,224.8c12.3,0,19.3,9.9,19.3,20.5c0,10.6-6.9,20.5-19.3,20.5c-12.3,0-19.3-9.9-19.3-20.5
		C55.8,234.7,62.7,224.8,75,224.8"/>
	<path class="st0" d="M117.5,236c0-2.7-2.6-4.4-5.8-4.4c-3.9,0-6.3,1.7-6.3,4.4c0,2.7,2.6,4.1,4.6,4.7l7.3,2.3c5.3,1.7,9,4.7,9,10.8
		c0,4.8-3.5,12.1-14.4,12.1c-13.7,0-15-8.9-15-12.4l7.9-0.2c0,4.2,3.3,5.8,7.2,5.8c2.7,0,6.5-1.3,6.5-4.4c0-2.1-0.9-3.2-4.8-4.6
		l-8.6-3.1c-4.4-1.6-7.4-5.4-7.4-9.9c0-5.1,3.5-12.3,13.7-12.3c12.2,0,14.2,8.1,14.2,11L117.5,236z"/>
	<polygon class="st0" points="138.2,232.6 127.8,232.6 127.8,225.6 156.5,225.6 156.5,232.6 146.1,232.6 146.1,265.2 138.2,265.2 	
		"/>
	<polygon class="st0" points="159.6,225.6 184.8,225.6 184.8,232.6 167.5,232.6 167.5,241.6 184.4,241.6 184.4,248.7 167.5,248.7 
		167.5,258.1 184.8,258.1 184.8,265.2 159.6,265.2 	"/>
	<polygon class="st0" points="196.4,238.1 196.3,238.1 196.3,265.2 188.7,265.2 188.7,225.6 197.2,225.6 213.3,252.1 213.4,252.1 
		213.4,225.6 221,225.6 221,265.2 212.8,265.2 	"/>
	<rect x="227.1" y="225.6" class="st0" width="7.9" height="39.6"/>
	<path class="st0" d="M254.3,258.4c5,0,6.8-2.2,6.8-5c0-2.5-1.6-5.2-6.2-5.2h-5.8v10.2H254.3z M253.9,241.8c3.7,0,6.3-1.7,6.3-4.8
		c0-3.3-2.4-4.7-5.6-4.7h-5.5v9.5H253.9z M241.2,225.6h14.1c8.4,0,12.8,4.3,12.8,10.7c0,4.4-2.5,6.8-5.3,8.2v0.1
		c3.5,0.8,6.6,4.1,6.6,9c0,7.3-5.6,11.6-13.7,11.6h-14.4V225.6z"/>
	<polygon class="st0" points="273.3,225.6 281.2,225.6 281.2,257.8 296.4,257.8 296.4,265.2 273.3,265.2 	"/>
	<polygon class="st0" points="299.6,225.6 324.8,225.6 324.8,232.6 307.5,232.6 307.5,241.6 324.4,241.6 324.4,248.7 307.5,248.7 
		307.5,258.1 324.8,258.1 324.8,265.2 299.6,265.2 	"/>
	<path class="st18" d="M255,148.9c0.6-1,1.3-1.9,2.1-2.8l-7-7.7c-1.8,1.7-3.3,3.6-4.5,5.8L255,148.9z"/>
	<path class="st19" d="M272.2,143.5c1.1,0.5,2,1.1,2.9,1.8l7-7.7c-1.9-1.6-3.9-2.9-6.2-3.9L272.2,143.5z"/>
	<path class="st20" d="M288.3,145.8l-9.3,4.6c0.4,1,0.8,2.1,0.9,3.3l10.4-1C290,150.3,289.3,147.9,288.3,145.8"/>
	<path class="st21" d="M278.3,149.1l9.3-4.6c-1.2-2.1-2.6-4.1-4.4-5.8l-7,7.7C277,147.1,277.7,148.1,278.3,149.1"/>
	<path class="st22" d="M253.1,155.7c0-0.2,0-0.4,0-0.6l-10.4-0.9c0,0.5,0,1,0,1.6c0,2,0.2,3.9,0.7,5.8l10-2.9
		C253.2,157.7,253.1,156.7,253.1,155.7"/>
	<path class="st23" d="M277,164.2c-0.7,0.9-1.6,1.7-2.5,2.4l5.5,8.9c2-1.4,3.8-3.1,5.4-5L277,164.2z"/>
	<path class="st24" d="M280,155.7c0,1-0.1,1.9-0.3,2.9l10,2.9c0.5-1.8,0.7-3.8,0.7-5.7c0-0.5,0-1,0-1.5l-10.4,1
		C280,155.4,280,155.5,280,155.7"/>
	<path class="st25" d="M256.3,164.4l-8.3,6.3c1.5,1.9,3.4,3.6,5.4,4.9l5.5-8.9C258,166.1,257.1,165.3,256.3,164.4"/>
	<path class="st26" d="M253.3,153.6c0.2-1.2,0.5-2.3,1-3.3l-9.3-4.6c-1,2.2-1.7,4.6-2.1,7.1L253.3,153.6z"/>
	<path class="st27" d="M278.7,176.3l-5.5-8.9c-1,0.6-2.1,1-3.2,1.3l1.9,10.2C274.3,178.4,276.6,177.5,278.7,176.3"/>
	<path class="st28" d="M279.3,160c-0.4,1.1-0.9,2.1-1.5,3l8.3,6.3c1.4-1.9,2.4-4.1,3.1-6.4L279.3,160z"/>
	<path class="st29" d="M268.5,169c-0.6,0.1-1.3,0.1-1.9,0.1c-0.5,0-1.1,0-1.6-0.1l-1.9,10.2c1.1,0.2,2.3,0.3,3.5,0.3
		c1.3,0,2.6-0.1,3.9-0.3L268.5,169z"/>
	<path class="st30" d="M267.4,142.3c1.2,0.1,2.3,0.3,3.3,0.6l3.7-9.7c-2.2-0.8-4.6-1.3-7.1-1.3V142.3z"/>
	<path class="st31" d="M263.5,168.8c-1.2-0.3-2.3-0.7-3.3-1.2l-5.5,8.9c2.1,1.2,4.4,2.1,6.9,2.6L263.5,168.8z"/>
	<path class="st32" d="M262.5,142.9c1.1-0.3,2.2-0.5,3.4-0.6v-10.4c-2.5,0.1-4.9,0.5-7.2,1.3L262.5,142.9z"/>
	<path class="st33" d="M255.4,163.2c-0.7-1-1.2-2-1.6-3.2l-10,2.9c0.8,2.4,1.9,4.6,3.3,6.6L255.4,163.2z"/>
	<path class="st34" d="M258.2,145.1c0.9-0.7,1.8-1.3,2.9-1.7l-3.8-9.7c-2.2,0.9-4.3,2.2-6.1,3.8L258.2,145.1z"/>
	<path class="st0" d="M83,169.5c5.7,0,7.8-2.5,7.8-5.7c0-2.9-1.8-5.9-7.1-5.9H77v11.6H83z M82.5,150.5c4.3,0,7.2-1.9,7.2-5.5
		c0-3.7-2.8-5.4-6.4-5.4H77v10.9H82.5z M68,131.8h16.1c9.6,0,14.7,4.9,14.7,12.3c0,5-2.8,7.8-6.1,9.4v0.1c4,1,7.5,4.6,7.5,10.3
		c0,8.3-6.4,13.3-15.7,13.3H68V131.8z"/>
	<path class="st0" d="M101,131.8h20.8v29.9c0,14.4-8.6,15.8-17.7,15.8h-2.9v-7.7h4.6c4.4,0,6.9-1.3,6.9-6v-23.9H101V131.8z"/>
	<polygon class="st0" points="127.7,131.8 156.7,131.8 156.7,139.9 136.8,139.9 136.8,150.2 156.2,150.2 156.2,158.3 136.8,158.3 
		136.8,169.1 156.7,169.1 156.7,177.2 127.7,177.2 	"/>
	<polygon class="st0" points="169.8,139.9 157.9,139.9 157.9,131.8 190.8,131.8 190.8,139.9 178.9,139.9 178.9,177.2 169.8,177.2 	
		"/>
	<rect x="194.6" y="131.8" class="st0" width="9.1" height="45.4"/>
	<polygon class="st0" points="235.4,131.8 245.2,131.8 230.5,177.2 220.9,177.2 206.2,131.8 216.1,131.8 225.8,165.2 225.9,165.2 	
		"/>
	<path class="st0" d="M42.2,139.1c-8.4,0-12.7,7.3-12.7,15.4S33.8,170,42.2,170c8.4,0,12.7-7.3,12.7-15.4S50.7,139.1,42.2,139.1
		 M42.2,131c14.1,0,22.1,11.3,22.1,23.5c0,12.2-8,23.5-22.1,23.5c-14.1,0-22.1-11.3-22.1-23.5C20.2,142.3,28.1,131,42.2,131"/>
	<path class="st0" d="M315.7,143.8c0-3.1-3-5.1-6.6-5.1c-4.5,0-7.2,2-7.2,5c0,3.1,3,4.6,5.2,5.4l8.3,2.7c6,1.9,10.3,5.4,10.3,12.4
		c0,5.5-4,13.9-16.5,13.9c-15.7,0-17.2-10.2-17.2-14.2l9-0.2c0,4.8,3.8,6.7,8.2,6.7c3.1,0,7.4-1.5,7.4-5c0-2.4-1-3.7-5.5-5.3
		l-9.9-3.6c-5-1.8-8.5-6.2-8.5-11.3c0-5.8,4-14.1,15.7-14.1c14,0,16.2,9.3,16.2,12.6L315.7,143.8z"/>
</g>
</svg>
